<?xml version="1.0" encoding="UTF-8"?>
<svg version="1.1" xmlns="http://www.w3.org/2000/svg" width="256" height="256">
<path d="M0 0 C1.10730469 0.24621094 2.21460938 0.49242188 3.35546875 0.74609375 C8.84475333 2.08623633 13.84466639 3.64844432 19 6 C22.29842404 7.25693369 25.60419265 8.49228991 28.9140625 9.71875 C31.82739289 10.92833528 34.34168808 12.3131642 37 14 C37.680625 14.39960937 38.36125 14.79921875 39.0625 15.2109375 C43.28582337 17.74833743 46.76736987 20.26227141 50 24 C50 24.66 50 25.32 50 26 C50.99 26.33 51.98 26.66 53 27 C63.54551474 36.74458957 73.27473846 52.40792415 78 66 C78 66.99 78 67.98 78 69 C78.60328125 68.66226563 79.2065625 68.32453125 79.828125 67.9765625 C80.62734375 67.53054687 81.4265625 67.08453125 82.25 66.625 C83.03890625 66.18414062 83.8278125 65.74328125 84.640625 65.2890625 C85.41921875 64.86367187 86.1978125 64.43828125 87 64 C87.68320313 63.61972656 88.36640625 63.23945312 89.0703125 62.84765625 C92.049382 61.53903665 94.796845 61.82204694 98 62 C98.66 62.33 99.32 62.66 100 63 C100.50190379 70.58432391 99.96983297 75.54470638 96 82 C95.42121094 83.04285156 94.84242188 84.08570313 94.24609375 85.16015625 C90.70696049 91.47739829 90.70696049 91.47739829 89 94 C88.34 94 87.68 94 87 94 C86.34 98.29 85.68 102.58 85 107 C84.34 107 83.68 107 83 107 C83 107.66 83 108.32 83 109 C82.01 109.495 82.01 109.495 81 110 C81.85098544 116.29729225 82.74348329 122.46344397 84.5625 128.5625 C86.29911893 134.60522504 88.25190966 141.99823098 86.32421875 148.16015625 C83.41934242 152.19613487 79.35543717 153.41234433 74.625 154.1875 C65.00293517 155.60285935 55.29939859 156.15331025 46 153 C43.44604681 151.04196922 43.04442707 150.13328122 42 147 C41.93062938 144.77181559 41.91542916 142.54165476 41.9375 140.3125 C41.94652344 139.13300781 41.95554688 137.95351562 41.96484375 136.73828125 C41.98224609 135.38283203 41.98224609 135.38283203 42 134 C41.2575 134.433125 40.515 134.86625 39.75 135.3125 C34.80416439 137.79126395 29.36091023 138.77782358 24 140 C23.21109375 140.185625 22.4221875 140.37125 21.609375 140.5625 C15.77606809 141.90541958 9.8945801 142.96431677 4 144 C4.0721875 144.57363281 4.144375 145.14726562 4.21875 145.73828125 C4.91913321 152.14873313 5.19530659 158.55619357 5.3125 165 C5.34214844 165.83700439 5.37179688 166.67400879 5.40234375 167.53637695 C5.41007813 168.32874756 5.4178125 169.12111816 5.42578125 169.9375 C5.44765503 171.00291016 5.44765503 171.00291016 5.4699707 172.08984375 C5 174 5 174 3.25634766 175.68066406 C-3.74315475 179.77342656 -12.6996183 179.31252789 -20.5625 179.25 C-21.53896484 179.25773438 -22.51542969 179.26546875 -23.52148438 179.2734375 C-36.07440798 179.23985108 -36.07440798 179.23985108 -41 177 C-44.25192819 172.01588896 -43.21758613 164.9080724 -43.125 159.125 C-43.11597656 158.05507812 -43.10695313 156.98515625 -43.09765625 155.8828125 C-43.07419342 153.25497561 -43.04136459 150.62760594 -43 148 C-43.85529297 148.01047363 -44.71058594 148.02094727 -45.59179688 148.03173828 C-76.9689183 148.36544757 -76.9689183 148.36544757 -90 146 C-89.83242187 147.07378906 -89.66484375 148.14757812 -89.4921875 149.25390625 C-89.28569121 150.68999407 -89.08000514 152.12619856 -88.875 153.5625 C-88.70677734 154.61920898 -88.70677734 154.61920898 -88.53515625 155.69726562 C-87.85851017 160.59167224 -88.03475066 164.33471967 -90 169 C-95.64643089 173.74300195 -104.02996036 173.58690476 -111.01953125 173.39453125 C-117.51265697 172.75095353 -123.94204859 171.48127051 -130 169 C-130.33 168.01 -130.66 167.02 -131 166 C-131.66 166 -132.32 166 -133 166 C-133.54750403 148.33792569 -133.54750403 148.33792569 -130.65625 141.859375 C-129.78099103 139.37947457 -129.62911815 137.60867456 -130 135 C-131.7182499 133.33536894 -131.7182499 133.33536894 -134.0625 132.125 C-144.92128004 125.46906531 -144.92128004 125.46906531 -146.6875 119.7890625 C-146.790625 119.19867188 -146.89375 118.60828125 -147 118 C-147.66 118 -148.32 118 -149 118 C-155.56362198 107.81506934 -156.50585086 97.48661823 -156.4375 85.5625 C-156.45748047 84.32951172 -156.47746094 83.09652344 -156.49804688 81.82617188 C-156.49127537 69.00770818 -153.20064455 57.820709 -144.5 48.25 C-142.06675733 46.0600816 -139.59449284 43.99576372 -137 42 C-136.40703125 41.49984375 -135.8140625 40.9996875 -135.203125 40.484375 C-132.61444452 38.74022858 -130.3380048 38.11016939 -127.3125 37.375 C-123.86115332 36.75123079 -123.86115332 36.75123079 -121 35 C-117.66214042 34.86422266 -114.330901 34.75203271 -110.99023438 34.74609375 C-107.00872246 34.60766973 -105.38980691 34.41596416 -102.61328125 31.453125 C-102.08089844 30.64359375 -101.54851562 29.8340625 -101 29 C-100.34 29 -99.68 29 -99 29 C-98.34 27.68 -97.68 26.36 -97 25 C-96.34 25 -95.68 25 -95 25 C-95 24.34 -95 23.68 -95 23 C-92.64637709 20.7777382 -89.97187784 18.9283296 -87.375 17 C-86.66214844 16.4534375 -85.94929688 15.906875 -85.21484375 15.34375 C-81.26976263 12.39036817 -77.85656445 10.22563141 -73 9 C-73 8.34 -73 7.68 -73 7 C-71.00017055 6.22872431 -69.00012709 5.4580035 -67 4.6875 C-65.88625 4.25824219 -64.7725 3.82898438 -63.625 3.38671875 C-62.42875 2.92910156 -61.2325 2.47148438 -60 2 C-59.37891357 1.73815918 -58.75782715 1.47631836 -58.11791992 1.20654297 C-52.88887209 -0.92907166 -47.92443789 -1.76417304 -42.3125 -2.25 C-41.40910889 -2.3315332 -40.50571777 -2.41306641 -39.57495117 -2.49707031 C-26.24323772 -3.54323709 -13.05238691 -2.92299339 0 0 Z " fill="#BBCD45" transform="translate(156,64)"/>
<path d="M0 0 C1.10730469 0.24621094 2.21460938 0.49242188 3.35546875 0.74609375 C8.84475333 2.08623633 13.84466639 3.64844432 19 6 C22.29842404 7.25693369 25.60419265 8.49228991 28.9140625 9.71875 C31.82739289 10.92833528 34.34168808 12.3131642 37 14 C37.680625 14.39960937 38.36125 14.79921875 39.0625 15.2109375 C43.28582337 17.74833743 46.76736987 20.26227141 50 24 C50 24.66 50 25.32 50 26 C50.99 26.33 51.98 26.66 53 27 C54.37195574 28.29355827 55.71182656 29.62298702 57 31 C53.9448457 42.15889691 53.9448457 42.15889691 51 46 C50.34 46 49.68 46 49 46 C49.48983117 50.40848053 50.82419582 52.01100783 54 55 C56.43921068 58.48458668 57 59.62072472 57 64 C57.66 64 58.32 64 59 64 C62.81085857 71.17773362 66.00878667 78.10501383 68 86 C71.26008643 82.83047153 74.22237877 79.60062011 77 76 C77.99 76.33 78.98 76.66 80 77 C81.21909393 80.65728179 81.41938995 83.15559209 81 87 C78.6640625 89.87109375 78.6640625 89.87109375 75.625 92.4375 C75.11710938 92.88287109 74.60921875 93.32824219 74.0859375 93.78710938 C70.33509745 97 70.33509745 97 68 97 C67.67 97.99 67.34 98.98 67 100 C64.03 100.495 64.03 100.495 61 101 C60.67 101.99 60.34 102.98 60 104 C56.7 104.66 53.4 105.32 50 106 C50 106.66 50 107.32 50 108 C39.77929737 111.58311989 29.57341484 114.65315613 19 117 C18.32743164 117.15243164 17.65486328 117.30486328 16.96191406 117.46191406 C8.43596771 119.34437146 0.11185886 120.28817807 -8.625 120.375 C-9.45418945 120.38885742 -10.28337891 120.40271484 -11.13769531 120.41699219 C-16.51715331 120.37542663 -20.18278709 119.38712843 -25 117 C-26.32276056 116.62691369 -27.65232077 116.26953585 -29 116 C-29 115.34 -29 114.68 -29 114 C-29.75667969 113.75507813 -30.51335937 113.51015625 -31.29296875 113.2578125 C-34.3535189 111.83573869 -35.39360456 110.60811658 -37.3125 107.875 C-39.75969021 104.50271811 -42.24776522 101.80931982 -45.375 99.0625 C-49.31184263 95.30045926 -49.93358867 92.25607029 -50.0625 86.90625 C-50.041875 86.2771875 -50.02125 85.648125 -50 85 C-44.86628461 86.50991629 -41.71164191 89.70645349 -37.9375 93.3125 C-37.32583984 93.88162109 -36.71417969 94.45074219 -36.08398438 95.03710938 C-32.77022951 98.15741261 -29.64497751 101.27328605 -27 105 C-27 105.66 -27 106.32 -27 107 C-24.36 107.66 -21.72 108.32 -19 109 C-19.33 90.52 -19.66 72.04 -20 53 C-26.27 49.7 -32.54 46.4 -39 43 C-41.31 41.68 -43.62 40.36 -46 39 C-47.56498346 38.29132824 -49.14740505 37.61893322 -50.75 37 C-51.58789062 36.67515625 -52.42578125 36.3503125 -53.2890625 36.015625 C-57.84667721 34.30816128 -62.41699028 32.63803389 -67 31 C-67 30.34 -67 29.68 -67 29 C-72.74622903 30.79440004 -75.98392572 34.75433269 -80.0859375 38.98046875 C-83 41 -83 41 -86.7265625 40.86328125 C-90 40 -90 40 -92 39 C-89.14071541 32.43097693 -82.76531766 27.06963599 -77 23 C-76.34 23 -75.68 23 -75 23 C-75.66 18.71 -76.32 14.42 -77 10 C-75.68 9.67 -74.36 9.34 -73 9 C-73 8.34 -73 7.68 -73 7 C-71.00017055 6.22872431 -69.00012709 5.4580035 -67 4.6875 C-65.88625 4.25824219 -64.7725 3.82898438 -63.625 3.38671875 C-62.42875 2.92910156 -61.2325 2.47148438 -60 2 C-59.06837036 1.60723877 -59.06837036 1.60723877 -58.11791992 1.20654297 C-52.88887209 -0.92907166 -47.92443789 -1.76417304 -42.3125 -2.25 C-41.40910889 -2.3315332 -40.50571777 -2.41306641 -39.57495117 -2.49707031 C-26.24323772 -3.54323709 -13.05238691 -2.92299339 0 0 Z " fill="#34342F" transform="translate(156,64)"/>
<path d="M0 0 C1.25248535 0.05776611 1.25248535 0.05776611 2.53027344 0.11669922 C8.41954886 0.47465637 14.05984551 1.4617321 19.8125 2.75 C20.91980469 2.99621094 22.02710938 3.24242188 23.16796875 3.49609375 C28.65725333 4.83623633 33.65716639 6.39844432 38.8125 8.75 C42.11092404 10.00693369 45.41669265 11.24228991 48.7265625 12.46875 C51.63923081 13.67806039 54.15290104 15.06676544 56.8125 16.75 C57.493125 17.13800781 58.17375 17.52601562 58.875 17.92578125 C63.53214849 20.65810022 66.58752528 23.41644022 69.8125 27.75 C69.1525 27.75 68.4925 27.75 67.8125 27.75 C67.73 28.678125 67.6475 29.60625 67.5625 30.5625 C66.87745937 35.46859979 65.38528405 43.17721595 61.8125 46.75 C59.29743671 46.89850777 56.80665067 46.98539543 54.2890625 47.03125 C53.51972382 47.04943283 52.75038513 47.06761566 51.95773315 47.08634949 C49.45106567 47.14514553 46.9443099 47.1976606 44.4375 47.25 C41.04418338 47.32594743 37.65097476 47.405733 34.2578125 47.48828125 C33.01448151 47.51835014 33.01448151 47.51835014 31.74603271 47.54902649 C24.86345251 47.72611311 17.99306921 48.04352328 11.13134766 48.62109375 C7.1583077 48.90397027 4.38762009 48.54443528 0.8125 46.75 C0.8125 46.09 0.8125 45.43 0.8125 44.75 C-0.8890625 44.316875 -0.8890625 44.316875 -2.625 43.875 C-3.800625 43.50375 -4.97625 43.1325 -6.1875 42.75 C-6.5175 42.09 -6.8475 41.43 -7.1875 40.75 C-9.22352614 39.75496906 -9.22352614 39.75496906 -11.6875 38.875 C-17.99316102 36.44974576 -24.14604072 33.83873505 -30.125 30.6875 C-33.97303217 28.71315754 -37.91248489 27.5592145 -42.0859375 26.4609375 C-44.1875 25.75 -44.1875 25.75 -46.1875 23.75 C-47.72143975 19.01561805 -48.89372925 13.69360472 -48.1875 8.75 C-45.23672 5.98580328 -42.38308464 5.06855328 -38.5 4.125 C-35.04865332 3.50123079 -35.04865332 3.50123079 -32.1875 1.75 C-21.47312787 0.20425066 -10.81734183 -0.51632684 0 0 Z " fill="#747E3E" transform="translate(136.1875,61.25)"/>
<path d="M0 0 C4.05498782 1.51386212 5.5771651 3.91943799 7.875 7.5 C8.56851563 8.57894531 9.26203125 9.65789062 9.9765625 10.76953125 C10.64429688 11.83558594 11.31203125 12.90164062 12 14 C12.84691406 15.33611328 12.84691406 15.33611328 13.7109375 16.69921875 C22 30.10057107 22 30.10057107 22 36 C22.60328125 35.66226563 23.2065625 35.32453125 23.828125 34.9765625 C24.62734375 34.53054687 25.4265625 34.08453125 26.25 33.625 C27.03890625 33.18414062 27.8278125 32.74328125 28.640625 32.2890625 C29.41921875 31.86367187 30.1978125 31.43828125 31 31 C32.02480469 30.42958984 32.02480469 30.42958984 33.0703125 29.84765625 C36.049382 28.53903665 38.796845 28.82204694 42 29 C42.66 29.33 43.32 29.66 44 30 C44.50190379 37.58432391 43.96983297 42.54470638 40 49 C39.13181641 50.56427734 39.13181641 50.56427734 38.24609375 52.16015625 C34.70696049 58.47739829 34.70696049 58.47739829 33 61 C32.34 61 31.68 61 31 61 C30.34 65.29 29.68 69.58 29 74 C28.34 74 27.68 74 27 74 C27 74.66 27 75.32 27 76 C23.64129182 77.79930796 20.55456856 78.73350253 16.8125 79.375 C15.9153125 79.684375 15.9153125 79.684375 15 80 C14.505 81.485 14.505 81.485 14 83 C12.02 83.33 10.04 83.66 8 84 C8 84.66 8 85.32 8 86 C5.85750987 86.95221784 3.71474039 87.90371193 1.5703125 88.8515625 C-0.06606143 89.5827083 -1.69701074 90.32621042 -3.3203125 91.0859375 C-9.46698146 93.93439385 -15.12680532 96 -22 96 C-22 96.66 -22 97.32 -22 98 C-22.94637329 98.17390259 -22.94637329 98.17390259 -23.91186523 98.35131836 C-26.75450681 98.87600481 -29.5959995 99.40667024 -32.4375 99.9375 C-33.92733398 100.21110352 -33.92733398 100.21110352 -35.44726562 100.49023438 C-36.39150391 100.66748047 -37.33574219 100.84472656 -38.30859375 101.02734375 C-39.62041626 101.27085571 -39.62041626 101.27085571 -40.95874023 101.51928711 C-42.98228064 101.8068839 -42.98228064 101.8068839 -44 103 C-54.24134275 104.64489582 -64.88751707 104.15275298 -75.22192383 104.13037109 C-78.21896259 104.12494302 -81.21585602 104.13037892 -84.21289062 104.13671875 C-86.11458366 104.13605912 -88.01627661 104.13478036 -89.91796875 104.1328125 C-90.81573532 104.13483673 -91.71350189 104.13686096 -92.63847351 104.13894653 C-98.88500486 104.11499514 -98.88500486 104.11499514 -100 103 C-100.18980228 100.26744979 -100.32857054 97.54848661 -100.4375 94.8125 C-100.96961704 83.67123034 -102.37879869 72.85926255 -105 62 C-100.39192801 65.76169142 -96.42825007 69.64397469 -92.5703125 74.16796875 C-89.22556793 78.12896638 -89.22556793 78.12896638 -85 81 C-85 81.66 -85 82.32 -85 83 C-83.9275 83.12375 -82.855 83.2475 -81.75 83.375 C-78 84 -78 84 -76.3046875 85.01171875 C-58.79743143 92.51906754 -30.13644634 82.30783351 -13.4140625 76.13671875 C-10 75 -10 75 -6 75 C-6 74.34 -6 73.68 -6 73 C-5.31292969 72.81824219 -4.62585938 72.63648438 -3.91796875 72.44921875 C-3.01691406 72.19785156 -2.11585938 71.94648438 -1.1875 71.6875 C-0.29417969 71.44386719 0.59914063 71.20023437 1.51953125 70.94921875 C4.07981073 69.96945826 5.18527011 68.99017205 7 67 C7.61875 66.87625 8.2375 66.7525 8.875 66.625 C12.11799409 65.67117821 13.67654901 63.4290624 16 61 C16.69222656 60.45859375 17.38445312 59.9171875 18.09765625 59.359375 C22.85697707 55.77746317 22.85697707 55.77746317 24.5625 50.25 C24.08395343 47.00218466 24.08395343 47.00218466 23 44 C22.34 43.67 21.68 43.34 21 43 C20.773125 43.53625 20.54625 44.0725 20.3125 44.625 C18.54429911 47.82460161 16.46329797 50.29037223 14 53 C13.34 53 12.68 53 12 53 C11.60167969 52.05898437 11.20335937 51.11796875 10.79296875 50.1484375 C10.25791124 48.890583 9.72274942 47.63277286 9.1875 46.375 C8.92646484 45.75753906 8.66542969 45.14007813 8.39648438 44.50390625 C7.11720129 41.50311876 5.78178878 38.57160372 4.30078125 35.6640625 C3 33 3 33 3 31 C2.34 31 1.68 31 1 31 C0.54625 29.948125 0.0925 28.89625 -0.375 27.8125 C-0.65085937 27.17699219 -0.92671875 26.54148437 -1.2109375 25.88671875 C-1.86515008 24.32243818 -2.4429693 22.72646326 -3 21.125 C-3.33 20.42375 -3.66 19.7225 -4 19 C-5.485 18.505 -5.485 18.505 -7 18 C-7 16.35 -7 14.7 -7 13 C-6.34 13 -5.68 13 -5 13 C-3.25150329 8.6960081 -1.6229639 4.35249409 0 0 Z " fill="#757F3E" transform="translate(212,97)"/>
<path d="M0 0 C0.82728104 -0.01606293 1.65456207 -0.03212585 2.50691223 -0.04867554 C6.20120355 -0.09389913 9.89534086 -0.13403603 13.58984375 -0.15722656 C15.53820642 -0.17390579 17.48650505 -0.20134952 19.43457031 -0.23925781 C22.26488463 -0.29387416 25.09379137 -0.31585931 27.92456055 -0.33056641 C28.79438065 -0.35323578 29.66420074 -0.37590515 30.56037903 -0.39926147 C36.58090994 -0.37811754 36.58090994 -0.37811754 39.71826172 2.58105469 C41.00129092 4.86374992 41.80486359 6.61831507 42.1862793 9.19287109 C42.8462793 9.19287109 43.5062793 9.19287109 44.1862793 9.19287109 C46.72754714 13.39910752 48.71103172 17.38882804 50.3269043 22.02099609 C51.32681928 24.54805395 52.58394255 26.86410072 53.8737793 29.25537109 C56.09496121 33.55807976 56.70702372 36.40202244 56.1862793 41.19287109 C53.85557479 42.19931167 51.5219544 43.19804651 49.1862793 44.19287109 C48.25557617 44.59119141 47.32487305 44.98951172 46.3659668 45.39990234 C44.85389648 46.03992188 44.85389648 46.03992188 43.3112793 46.69287109 C42.36510742 47.09505859 41.41893555 47.49724609 40.4440918 47.91162109 C33.0578198 50.81653382 25.80301307 52.81977018 17.9987793 54.25537109 C16.27542262 54.57584593 14.55274139 54.89997778 12.83081055 55.22802734 C12.08162354 55.3660376 11.33243652 55.50404785 10.56054688 55.64624023 C7.71728801 56.3008476 4.95419704 57.27023185 2.1862793 58.19287109 C-3.0937207 58.19287109 -8.3737207 58.19287109 -13.8137207 58.19287109 C-13.8137207 39.38287109 -13.8137207 20.57287109 -13.8137207 1.19287109 C-3.67327888 0.06615534 -3.67327888 0.06615534 0 0 Z " fill="#737D3E" transform="translate(159.813720703125,116.80712890625)"/>
<path d="M0 0 C0 0.66 0 1.32 0 2 C0.67804688 2.17015625 1.35609375 2.3403125 2.0546875 2.515625 C10.56646319 4.73198764 18.36800532 7.42578427 25.98828125 11.85620117 C30.74768478 14.56224553 35.6433784 17.02685751 40.5 19.55273438 C41.73363281 20.19758789 41.73363281 20.19758789 42.9921875 20.85546875 C43.73839355 21.24371826 44.48459961 21.63196777 45.25341797 22.03198242 C47 23 47 23 48 24 C48.09365006 25.7492872 48.11744438 27.50236254 48.11352539 29.25415039 C48.11341209 30.93578026 48.11341209 30.93578026 48.11329651 32.65138245 C48.10813522 33.8711528 48.10297394 35.09092316 48.09765625 36.34765625 C48.0962413 37.58921982 48.09482635 38.83078339 48.09336853 40.10997009 C48.08870591 43.41605491 48.07971497 46.72207146 48.06866455 50.02813721 C48.05844827 53.3996115 48.05387045 56.77109283 48.04882812 60.14257812 C48.03777395 66.76173775 48.02101736 73.38086493 48 80 C43.31542969 80.27099609 43.31542969 80.27099609 40.4765625 77.83203125 C39.65929687 76.89746094 38.84203125 75.96289062 38 75 C37.24460938 74.13761719 36.48921875 73.27523437 35.7109375 72.38671875 C34.94007812 71.49597656 34.16921875 70.60523438 33.375 69.6875 C28.4667057 64.232197 23.09839411 60.0462729 17 56 C17 57.98 17 59.96 17 62 C15.11915404 59.17873106 14.68145146 58.02237671 14.12890625 54.83984375 C13.11248362 49.96476138 11.30438471 45.92231172 8.9375 41.5625 C8.53901855 40.82459229 8.14053711 40.08668457 7.72998047 39.32641602 C0.80052698 26.91035041 -9.19125061 18.13244663 -22 12 C-20 11 -20 11 -17.72265625 10.75390625 C-12.95655276 9.43416741 -10.06263021 5.55569396 -6.62109375 2.15234375 C-4 0 -4 0 0 0 Z " fill="#747E3E" transform="translate(89,93)"/>
<path d="M0 0 C6.08798629 2.27284821 8.71296383 8.76108741 12 14 C12.55300781 14.8559375 13.10601562 15.711875 13.67578125 16.59375 C23.49944242 32.23037864 23.49944242 32.23037864 23 41 C23 41.99 23 42.98 23 44 C22.34 43.67 21.68 43.34 21 43 C20.773125 43.53625 20.54625 44.0725 20.3125 44.625 C18.54429911 47.82460161 16.46329797 50.29037223 14 53 C13.34 53 12.68 53 12 53 C11.60167969 52.05898437 11.20335937 51.11796875 10.79296875 50.1484375 C10.25791124 48.890583 9.72274942 47.63277286 9.1875 46.375 C8.92646484 45.75753906 8.66542969 45.14007813 8.39648438 44.50390625 C7.11720129 41.50311876 5.78178878 38.57160372 4.30078125 35.6640625 C3 33 3 33 3 31 C2.34 31 1.68 31 1 31 C0.54625 29.948125 0.0925 28.89625 -0.375 27.8125 C-0.65085938 27.17699219 -0.92671875 26.54148437 -1.2109375 25.88671875 C-1.86515008 24.32243818 -2.4429693 22.72646326 -3 21.125 C-3.33 20.42375 -3.66 19.7225 -4 19 C-4.99 18.67 -5.98 18.34 -7 18 C-7 16.35 -7 14.7 -7 13 C-6.34 13 -5.68 13 -5 13 C-3.25150329 8.6960081 -1.6229639 4.35249409 0 0 Z " fill="#737D3E" transform="translate(212,97)"/>
<path d="M0 0 C0.66 0.33 1.32 0.66 2 1 C2.50190379 8.58432391 1.96983297 13.54470638 -2 20 C-2.57878906 21.04285156 -3.15757812 22.08570313 -3.75390625 23.16015625 C-7.29303951 29.47739829 -7.29303951 29.47739829 -9 32 C-9.66 32 -10.32 32 -11 32 C-11.33 32.66 -11.66 33.32 -12 34 C-12.66 33.67 -13.32 33.34 -14 33 C-14.7194286 29.70042171 -15.26048104 26.4147638 -15.76757812 23.078125 C-16.49208128 18.72310053 -17.55030388 15.75301635 -20 12 C-20 9.375 -20 9.375 -19 7 C-16.875 5.4375 -16.875 5.4375 -14 4 C-13.45859375 3.64679688 -12.9171875 3.29359375 -12.359375 2.9296875 C-8.13186451 0.20656137 -5.14937832 -0.50484101 0 0 Z " fill="#BCCE45" transform="translate(254,126)"/>
<path d="M0 0 C0.40044304 1.65182755 0.71479595 3.32442621 1 5 C1.3403125 6.6396875 1.3403125 6.6396875 1.6875 8.3125 C0.71461103 13.53072263 -2.14182694 14.90483437 -6.30859375 17.93359375 C-10.13373993 20.87046215 -12.94597716 24.28205915 -16 28 C-19.96 27.01 -23.92 26.02 -28 25 C-28 21.47967572 -27.29648649 20.5614657 -25 18 C-24.34 18 -23.68 18 -23 18 C-22.34 16.68 -21.68 15.36 -21 14 C-20.34 14 -19.68 14 -19 14 C-19 13.34 -19 12.68 -19 12 C-16.58075342 9.73826836 -13.846358 7.84570988 -11.1875 5.875 C-10.44951172 5.31167969 -9.71152344 4.74835938 -8.95117188 4.16796875 C-8.23896484 3.63558594 -7.52675781 3.10320312 -6.79296875 2.5546875 C-6.1383667 2.06468262 -5.48376465 1.57467773 -4.80932617 1.06982422 C-3 0 -3 0 0 0 Z " fill="#737D3E" transform="translate(80,75)"/>
<path d="M0 0 C4.89593678 0.48156755 6.589084 1.691096 9.8125 5.375 C11.38459357 9.65214842 11.12229521 12.60051197 9.4375 16.8125 C7.8125 19.375 7.8125 19.375 6.8125 20.375 C3.38839028 20.93300306 0.2278461 21.00942962 -3.1875 20.375 C-5.81200565 18.47888138 -7.08578546 16.39765271 -8.1875 13.375 C-8.55476091 10.55933299 -8.43819051 8.23287182 -8.1875 5.375 C-7.5275 5.375 -6.8675 5.375 -6.1875 5.375 C-5.7234375 4.4159375 -5.7234375 4.4159375 -5.25 3.4375 C-3.70362903 0.43572106 -3.70362903 0.43572106 0 0 Z " fill="#373930" transform="translate(61.1875,126.625)"/>
<path d="M0 0 C2.42382505 2.85155888 2.78552039 4.67678479 2.5625 8.3984375 C1.7716593 12.19729731 -0.11092297 15.73592297 -2.875 18.5 C-9.83152174 19.19565217 -9.83152174 19.19565217 -13.875 16.5 C-16.44133404 12.65049894 -16.71251934 9.99711471 -15.875 5.5 C-14.61015069 2.5908466 -13.62049933 1.03984434 -11.0625 -0.8125 C-6.81222175 -2.14830173 -3.97172448 -2.07220408 0 0 Z " fill="#383A30" transform="translate(30.875,128.5)"/>
<path d="M0 0 C1.32 0 2.64 0 4 0 C4 0.66 4 1.32 4 2 C5.32 2.33 6.64 2.66 8 3 C8 3.66 8 4.32 8 5 C14.03553002 5.3621318 17.57060138 4.82781178 23 2 C25.98911001 1.46728733 28.97155758 1.19516629 32 1 C32 2.32 32 3.64 32 5 C29.8828125 6.81640625 29.8828125 6.81640625 27.125 8.5625 C23.89710597 10.6270647 22.15073127 11.7739031 20 15 C11.58640799 14.81378368 6.89012189 13.01560969 1.0625 7 C-0.25091901 4.52768187 -0.22998005 2.75976066 0 0 Z " fill="#3E4031" transform="translate(28,154)"/>
<path d="M0 0 C0.66 0 1.32 0 2 0 C0.42739812 3.86002281 -1.75115506 6.40092405 -5 9 C-8.8125 9.3125 -8.8125 9.3125 -12 9 C-12.33 8.34 -12.66 7.68 -13 7 C-12.154375 7.144375 -11.30875 7.28875 -10.4375 7.4375 C-5.88734056 6.8583888 -4.46173385 4.87548167 -1.515625 1.53125 C-1.01546875 1.0259375 -0.5153125 0.520625 0 0 Z " fill="#68703B" transform="translate(80,97)"/>
<path d="M0 0 C1.134375 0.020625 2.26875 0.04125 3.4375 0.0625 C3.4375 0.3925 3.4375 0.7225 3.4375 1.0625 C1.4575 1.0625 -0.5225 1.0625 -2.5625 1.0625 C-2.995625 1.990625 -2.995625 1.990625 -3.4375 2.9375 C-4.5625 5.0625 -4.5625 5.0625 -6.5625 7.0625 C-6.96014263 9.05071313 -7.30025349 11.05194339 -7.5625 13.0625 C-7.8925 13.0625 -8.2225 13.0625 -8.5625 13.0625 C-8.5625 10.4225 -8.5625 7.7825 -8.5625 5.0625 C-7.9025 5.0625 -7.2425 5.0625 -6.5625 5.0625 C-6.0984375 4.1034375 -6.0984375 4.1034375 -5.625 3.125 C-4.05177039 0.07108369 -4.05177039 0.07108369 0 0 Z " fill="#575C34" transform="translate(61.5625,126.9375)"/>
<path d="M0 0 C0.99 0.33 1.98 0.66 3 1 C3 1.66 3 2.32 3 3 C0.69 4.32 -1.62 5.64 -4 7 C-2.79618552 4.50638429 -1.54571278 2.31856917 0 0 Z " fill="#424533" transform="translate(233,140)"/>
</svg>
